<svg xmlns="http://www.w3.org/2000/svg" width="88" height="88" viewBox="0 0 88 88">
  <g id="Outline" transform="translate(-0.136 0.491)">
    <path id="Path_2" data-name="Path 2" d="M76.513,40.221A4.756,4.756,0,0,0,69.121,37.5a5.612,5.612,0,0,1-3.261,1.155H63.046a21.878,21.878,0,0,0-4.878-11.32l.272-.272a18.739,18.739,0,0,1,5.055-3.4,3.343,3.343,0,0,0,.87-.625,3.411,3.411,0,0,0-.734-5.368,3.356,3.356,0,0,0-3.289,0,3.438,3.438,0,0,0-1.359,1.359,20.873,20.873,0,0,1-3.533,5.245l-.082.082a21.878,21.878,0,0,0-11.347-4.77V16.875a5.87,5.87,0,0,1,1.169-3.37,4.761,4.761,0,1,0-7.759,0,5.612,5.612,0,0,1,1.155,3.261v2.718A21.878,21.878,0,0,0,27.28,24.363l-.285-.285a18.739,18.739,0,0,1-3.356-4.946,3.343,3.343,0,0,0-.625-.87A3.411,3.411,0,0,0,17.646,19a3.356,3.356,0,0,0,0,3.289A3.438,3.438,0,0,0,19,23.643a20.872,20.872,0,0,1,5.245,3.533l.1.1a21.878,21.878,0,0,0-4.783,11.347H16.844a5.612,5.612,0,0,1-3.261-1.155,4.756,4.756,0,1,0,0,7.759,5.87,5.87,0,0,1,3.261-1.169h2.718a21.878,21.878,0,0,0,4.878,11.32l-.082.082A20.872,20.872,0,0,1,19.059,59,3.438,3.438,0,0,0,17.7,60.36a3.356,3.356,0,0,0,0,3.289,3.411,3.411,0,0,0,5.368.734,3.329,3.329,0,0,0,.625-.87,18.739,18.739,0,0,1,3.316-5l.272-.272a21.878,21.878,0,0,0,11.306,4.838V65.8a5.612,5.612,0,0,1-1.155,3.261,4.756,4.756,0,1,0,7.759,0A5.87,5.87,0,0,1,44.022,65.8V63.078a21.878,21.878,0,0,0,11.32-4.892l.082.082a20.887,20.887,0,0,1,3.547,5.3,3.438,3.438,0,0,0,1.359,1.359,3.356,3.356,0,0,0,3.289,0,3.411,3.411,0,0,0,.788-5.34,3.343,3.343,0,0,0-.87-.625,18.739,18.739,0,0,1-5-3.316l-.272-.272a21.878,21.878,0,0,0,4.783-11.32h2.718a5.87,5.87,0,0,1,3.37,1.169,4.715,4.715,0,0,0,2.718.87,4.77,4.77,0,0,0,4.661-5.87Z" transform="translate(2.604 2.349)" fill="#ff9863"/>
    <path id="Path_7" data-name="Path 7" d="M16.7,0A16.7,16.7,0,1,1,0,16.7,16.7,16.7,0,0,1,16.7,0Z" transform="translate(27.208 26.983)" fill="#fff"/>
    <path id="Path_3" data-name="Path 3" d="M53.072,56.918A72.32,72.32,0,0,1,31.194,18.869a21.81,21.81,0,0,0-3.914,2.582l-.285-.285a18.739,18.739,0,0,1-3.356-5.014,3.343,3.343,0,0,0-.625-.87,3.411,3.411,0,0,0-5.368.734,3.356,3.356,0,0,0,0,3.289A3.438,3.438,0,0,0,19,20.663,20.872,20.872,0,0,1,24.25,24.2l.1.1a21.878,21.878,0,0,0-4.783,11.347H16.844a5.612,5.612,0,0,1-3.261-1.155,4.756,4.756,0,1,0,0,7.759,5.87,5.87,0,0,1,3.261-1.169h2.718a21.878,21.878,0,0,0,4.878,11.32l-.082.082a20.872,20.872,0,0,1-5.3,3.547A3.438,3.438,0,0,0,17.7,57.38a3.356,3.356,0,0,0,0,3.289,3.411,3.411,0,0,0,5.368.734,3.329,3.329,0,0,0,.625-.87,18.739,18.739,0,0,1,3.316-5l.272-.272A21.878,21.878,0,0,0,38.586,60.1v2.718a5.612,5.612,0,0,1-1.155,3.261,4.756,4.756,0,1,0,7.759,0,5.87,5.87,0,0,1-1.169-3.261V60.1a21.892,21.892,0,0,0,9.05-3.18Z" transform="translate(2.604 5.328)" fill="#ff7b37"/>
    <path id="Path_4" data-name="Path 4" d="M19.71,35.758a16.7,16.7,0,0,0,24.582,14.73A71.94,71.94,0,0,1,27.687,21.53,16.674,16.674,0,0,0,19.71,35.758Z" transform="translate(7.498 7.926)" fill="#fbddb1" stroke="#fff" stroke-width="1"/>
    <path id="Path_6" data-name="Path 6" d="M50.152,26.9A16.714,16.714,0,1,1,36.414,19.71" transform="translate(7.495 7.273)" fill="none" stroke="#ff5700" stroke-linecap="round" stroke-linejoin="round" stroke-width="1"/>
    <rect id="Rectangle_7" data-name="Rectangle 7" width="88" height="88" transform="translate(0.136 -0.491)" fill="none"/>
  </g>
</svg>
