<svg id="confirmed" xmlns="http://www.w3.org/2000/svg" width="104" height="104" viewBox="0 0 104 104">
  <defs>
    <style>
      .cls-1 {
        fill: #c40f0d;
      }

      .cls-2 {
        fill: #c5c1c2;
      }

      .cls-3 {
        fill: #c54c2a;
      }

      .cls-4 {
        fill: #7a1c1c;
      }

      .cls-5 {
        fill: #979493;
      }

      .cls-6 {
        fill: #f9954e;
      }

      .cls-7 {
        fill: #ffa769;
      }

      .cls-8, .cls-9 {
        fill: none;
      }

      .cls-8 {
        stroke: #787878;
        stroke-linecap: round;
        stroke-linejoin: round;
      }
    </style>
  </defs>
  <path id="Path_2" data-name="Path 2" class="cls-1" d="M90.512,47.025a5.7,5.7,0,0,0-8.862-3.258,6.728,6.728,0,0,1-3.91,1.385H74.369a26.226,26.226,0,0,0-5.848-13.569l.326-.326a22.463,22.463,0,0,1,6.06-4.072,4.007,4.007,0,0,0,1.043-.749A4.089,4.089,0,0,0,75.069,20a4.024,4.024,0,0,0-3.942,0A4.121,4.121,0,0,0,69.5,21.629a25.021,25.021,0,0,1-4.235,6.288l-.1.1a26.226,26.226,0,0,0-13.6-5.718V19.039a7.037,7.037,0,0,1,1.4-4.04,5.708,5.708,0,1,0-9.3,0,6.728,6.728,0,0,1,1.385,3.91v3.258a26.226,26.226,0,0,0-13.553,5.848l-.342-.342a22.463,22.463,0,0,1-4.024-5.929A4.007,4.007,0,0,0,26.38,20.7a4.089,4.089,0,0,0-6.434.88,4.024,4.024,0,0,0,0,3.942,4.121,4.121,0,0,0,1.629,1.629,25.021,25.021,0,0,1,6.288,4.235l.114.114a26.226,26.226,0,0,0-5.734,13.6H18.984a6.728,6.728,0,0,1-3.909-1.385,5.7,5.7,0,1,0,0,9.3,7.037,7.037,0,0,1,3.91-1.4h3.258A26.226,26.226,0,0,0,28.09,65.187l-.1.1a25.021,25.021,0,0,1-6.353,4.252,4.121,4.121,0,0,0-1.629,1.629,4.024,4.024,0,0,0,0,3.942,4.089,4.089,0,0,0,6.434.88,3.991,3.991,0,0,0,.749-1.043,22.463,22.463,0,0,1,3.975-5.995l.326-.326a26.226,26.226,0,0,0,13.553,5.8v3.258a6.728,6.728,0,0,1-1.385,3.91,5.7,5.7,0,1,0,9.3,0,7.037,7.037,0,0,1-1.4-3.91V74.424a26.226,26.226,0,0,0,13.569-5.864l.1.1a25.037,25.037,0,0,1,4.252,6.353,4.121,4.121,0,0,0,1.629,1.629,4.024,4.024,0,0,0,3.942,0,4.089,4.089,0,0,0,.945-6.4,4.007,4.007,0,0,0-1.043-.749,22.464,22.464,0,0,1-5.995-3.975l-.326-.326a26.226,26.226,0,0,0,5.734-13.569h3.258a7.037,7.037,0,0,1,4.04,1.4,5.652,5.652,0,0,0,3.258,1.043,5.718,5.718,0,0,0,5.587-7.037Z" transform="translate(3.821 3.766)"/>
  <path id="Path_7" data-name="Path 7" class="cls-2" d="M20.02,0A20.02,20.02,0,1,1,0,20.02,20.02,20.02,0,0,1,20.02,0Z" transform="translate(32.107 32.107)"/>
  <circle id="Ellipse_2" data-name="Ellipse 2" class="cls-3" cx="2.883" cy="2.883" r="2.883" transform="translate(49.243 37.14)"/>
  <circle id="Ellipse_3" data-name="Ellipse 3" class="cls-3" cx="3.584" cy="3.584" r="3.584" transform="translate(58.903 51.426)"/>
  <path id="Path_3" data-name="Path 3" class="cls-4" d="M62.412,65.39A86.693,86.693,0,0,1,36.186,19.779a26.144,26.144,0,0,0-4.691,3.095l-.342-.342a22.464,22.464,0,0,1-4.024-6.011,4.007,4.007,0,0,0-.749-1.043,4.089,4.089,0,0,0-6.434.88,4.024,4.024,0,0,0,0,3.942,4.121,4.121,0,0,0,1.629,1.629,25.021,25.021,0,0,1,6.288,4.235l.114.114a26.226,26.226,0,0,0-5.734,13.6H18.984A6.728,6.728,0,0,1,15.075,38.5a5.7,5.7,0,1,0,0,9.3,7.037,7.037,0,0,1,3.91-1.4h3.258A26.226,26.226,0,0,0,28.09,59.965l-.1.1a25.021,25.021,0,0,1-6.353,4.252,4.121,4.121,0,0,0-1.629,1.629,4.024,4.024,0,0,0,0,3.942,4.089,4.089,0,0,0,6.434.88,3.991,3.991,0,0,0,.749-1.043,22.463,22.463,0,0,1,3.975-5.995l.326-.326a26.226,26.226,0,0,0,13.553,5.8v3.258a6.728,6.728,0,0,1-1.385,3.91,5.7,5.7,0,1,0,9.3,0,7.037,7.037,0,0,1-1.4-3.91V69.2A26.243,26.243,0,0,0,62.412,65.39Z" transform="translate(3.821 8.989)"/>
  <path id="Path_4" data-name="Path 4" class="cls-5" d="M19.71,38.585A20.02,20.02,0,0,0,49.178,56.243,86.237,86.237,0,0,1,29.272,21.53,19.987,19.987,0,0,0,19.71,38.585Z" transform="translate(12.397 13.542)"/>
  <path id="Path_8" data-name="Path 8" class="cls-6" d="M7.037,0A7.037,7.037,0,1,1,0,7.037,7.037,7.037,0,0,1,7.037,0Z" transform="translate(39.828 47.94)"/>
  <path id="Path_5" data-name="Path 5" class="cls-7" d="M31.247,29.45A7.021,7.021,0,1,0,37.4,40.25a85.7,85.7,0,0,1-6.157-10.8Z" transform="translate(15.39 18.523)"/>
  <path id="Path_6" data-name="Path 6" class="cls-8" d="M56.2,28.327A20.036,20.036,0,1,1,39.735,19.71" transform="translate(12.392 12.397)"/>
  <rect id="Rectangle_7" data-name="Rectangle 7" class="cls-9" width="104" height="104"/>
</svg>
