<svg xmlns="http://www.w3.org/2000/svg" width="83" height="83" viewBox="0 0 83 83">
  <g id="Outline" transform="translate(0.356 0.373)">
    <path id="Path_2" data-name="Path 2" d="M72.232,38.14a4.467,4.467,0,0,0-6.943-2.553,5.271,5.271,0,0,1-3.063,1.085H59.584A20.548,20.548,0,0,0,55,26.041l.255-.255A17.6,17.6,0,0,1,60,22.6a3.14,3.14,0,0,0,.817-.587,3.2,3.2,0,0,0-.689-5.041,3.152,3.152,0,0,0-3.089,0,3.229,3.229,0,0,0-1.276,1.276,19.6,19.6,0,0,1-3.318,4.927l-.077.077a20.548,20.548,0,0,0-10.657-4.48V16.214a5.514,5.514,0,0,1,1.1-3.165,4.472,4.472,0,1,0-7.288,0,5.271,5.271,0,0,1,1.085,3.063v2.553a20.548,20.548,0,0,0-10.619,4.582l-.268-.268a17.6,17.6,0,0,1-3.152-4.646,3.14,3.14,0,0,0-.587-.817,3.2,3.2,0,0,0-5.041.689,3.152,3.152,0,0,0,0,3.089,3.229,3.229,0,0,0,1.276,1.276,19.6,19.6,0,0,1,4.927,3.318l.089.089a20.548,20.548,0,0,0-4.493,10.657H16.19a5.271,5.271,0,0,1-3.063-1.085,4.467,4.467,0,1,0,0,7.288,5.514,5.514,0,0,1,3.063-1.1h2.553a20.548,20.548,0,0,0,4.582,10.632l-.077.077a19.6,19.6,0,0,1-4.978,3.331,3.229,3.229,0,0,0-1.276,1.276,3.152,3.152,0,0,0,0,3.089,3.2,3.2,0,0,0,5.041.689,3.127,3.127,0,0,0,.587-.817,17.6,17.6,0,0,1,3.114-4.7l.255-.255A20.548,20.548,0,0,0,36.61,59.608V62.16a5.271,5.271,0,0,1-1.085,3.063,4.467,4.467,0,1,0,7.288,0,5.514,5.514,0,0,1-1.1-3.063V59.608a20.548,20.548,0,0,0,10.632-4.595l.077.077a19.617,19.617,0,0,1,3.331,4.978,3.229,3.229,0,0,0,1.276,1.276,3.152,3.152,0,0,0,3.089,0,3.2,3.2,0,0,0,.74-5.016,3.139,3.139,0,0,0-.817-.587,17.6,17.6,0,0,1-4.7-3.114l-.255-.255A20.548,20.548,0,0,0,59.584,41.74h2.553a5.514,5.514,0,0,1,3.165,1.1,4.429,4.429,0,0,0,2.553.817,4.48,4.48,0,0,0,4.378-5.514Z" transform="translate(1.56 2.086)" fill="#c40f0d"/>
    <path id="Path_7" data-name="Path 7" d="M15.686,0A15.686,15.686,0,1,1,0,15.686,15.686,15.686,0,0,1,15.686,0Z" transform="translate(25.037 25.587)" fill="#fff"/>
    <circle id="Ellipse_2" data-name="Ellipse 2" cx="2.259" cy="2.259" r="2.259" transform="translate(38.464 29.531)" fill="#7a1c1c"/>
    <circle id="Ellipse_3" data-name="Ellipse 3" cx="2.808" cy="2.808" r="2.808" transform="translate(46.032 40.724)" fill="#787878"/>
    <path id="Path_3" data-name="Path 3" d="M50.216,54.327A67.924,67.924,0,0,1,29.667,18.591a20.485,20.485,0,0,0-3.676,2.425l-.268-.268a17.6,17.6,0,0,1-3.152-4.71,3.14,3.14,0,0,0-.587-.817,3.2,3.2,0,0,0-5.041.689,3.152,3.152,0,0,0,0,3.089,3.229,3.229,0,0,0,1.276,1.276,19.6,19.6,0,0,1,4.927,3.318l.089.089A20.548,20.548,0,0,0,18.742,34.34H16.19a5.271,5.271,0,0,1-3.063-1.085,4.467,4.467,0,1,0,0,7.288,5.514,5.514,0,0,1,3.063-1.1h2.553a20.548,20.548,0,0,0,4.582,10.632l-.077.077a19.6,19.6,0,0,1-4.978,3.331,3.229,3.229,0,0,0-1.276,1.276,3.152,3.152,0,0,0,0,3.089,3.2,3.2,0,0,0,5.041.689,3.127,3.127,0,0,0,.587-.817,17.6,17.6,0,0,1,3.114-4.7l.255-.255A20.548,20.548,0,0,0,36.61,57.314v2.553a5.271,5.271,0,0,1-1.085,3.063,4.467,4.467,0,1,0,7.288,0,5.514,5.514,0,0,1-1.1-3.063V57.314a20.561,20.561,0,0,0,8.5-2.987Z" transform="translate(1.56 4.38)" fill="#7a1c1c"/>
    <path id="Path_4" data-name="Path 4" d="M19.71,34.893A15.686,15.686,0,0,0,42.8,48.728a67.567,67.567,0,0,1-15.6-27.2A15.66,15.66,0,0,0,19.71,34.893Z" transform="translate(6.327 6.38)" fill="#fff"/>
    <path id="Path_8" data-name="Path 8" d="M5.514,0A5.514,5.514,0,1,1,0,5.514,5.514,5.514,0,0,1,5.514,0Z" transform="translate(31.087 37.993)" fill="#c40f0d"/>
    <path id="Path_5" data-name="Path 5" d="M29.78,29.45A5.5,5.5,0,1,0,34.6,37.912,67.147,67.147,0,0,1,29.78,29.45Z" transform="translate(6.642 8.568)" fill="#c40f0d"/>
    <path id="Path_6" data-name="Path 6" d="M48.3,26.462A15.7,15.7,0,1,1,35.4,19.71" transform="translate(5.325 5.877)" fill="none" stroke="#fff" stroke-linecap="round" stroke-linejoin="round" stroke-width="1"/>
    <rect id="Rectangle_7" data-name="Rectangle 7" width="83" height="83" transform="translate(-0.356 -0.373)" fill="none"/>
  </g>
</svg>
