<svg id="deaths" xmlns="http://www.w3.org/2000/svg" width="111" height="111" viewBox="0 0 111 111">
  <defs>
    <style>
      .cls-1 {
        fill: #fff;
      }

      .cls-2 {
        fill: #d2d2d2;
      }

      .cls-3, .cls-4 {
        fill: none;
      }

      .cls-3 {
        stroke: #787878;
        stroke-linecap: round;
        stroke-linejoin: round;
      }
    </style>
  </defs>
  <path id="Path_2" data-name="Path 2" class="cls-1" d="M95.976,49.68a6.07,6.07,0,0,0-9.435-3.469,7.163,7.163,0,0,1-4.163,1.474h-3.59a27.923,27.923,0,0,0-6.226-14.447l.347-.347a23.917,23.917,0,0,1,6.452-4.336,4.267,4.267,0,0,0,1.11-.8,4.353,4.353,0,0,0-.937-6.851,4.284,4.284,0,0,0-4.2,0A4.388,4.388,0,0,0,73.6,22.641a26.64,26.64,0,0,1-4.509,6.695l-.1.1a27.923,27.923,0,0,0-14.482-6.088V19.884A7.493,7.493,0,0,1,56,15.582a6.077,6.077,0,1,0-9.9,0,7.163,7.163,0,0,1,1.474,4.162v3.469A27.923,27.923,0,0,0,33.14,29.44l-.364-.364a23.917,23.917,0,0,1-4.284-6.313,4.267,4.267,0,0,0-.8-1.11,4.353,4.353,0,0,0-6.851.937,4.284,4.284,0,0,0,0,4.2,4.388,4.388,0,0,0,1.734,1.734,26.64,26.64,0,0,1,6.695,4.509l.121.121a27.923,27.923,0,0,0-6.105,14.482H19.82a7.163,7.163,0,0,1-4.162-1.474,6.07,6.07,0,1,0,0,9.9,7.493,7.493,0,0,1,4.163-1.492h3.469a27.923,27.923,0,0,0,6.226,14.447l-.1.1a26.64,26.64,0,0,1-6.764,4.527,4.388,4.388,0,0,0-1.734,1.734,4.284,4.284,0,0,0,0,4.2,4.353,4.353,0,0,0,6.851.937,4.249,4.249,0,0,0,.8-1.11,23.917,23.917,0,0,1,4.232-6.382l.347-.347a27.923,27.923,0,0,0,14.43,6.174v3.469A7.163,7.163,0,0,1,46.1,86.484a6.07,6.07,0,1,0,9.9,0,7.493,7.493,0,0,1-1.492-4.163V78.852a27.923,27.923,0,0,0,14.447-6.244l.1.1a26.657,26.657,0,0,1,4.527,6.764,4.388,4.388,0,0,0,1.734,1.734,4.284,4.284,0,0,0,4.2,0,4.353,4.353,0,0,0,1.006-6.816,4.266,4.266,0,0,0-1.11-.8,23.917,23.917,0,0,1-6.383-4.232l-.347-.347a27.923,27.923,0,0,0,6.105-14.447h3.469a7.493,7.493,0,0,1,4.3,1.492,6.018,6.018,0,0,0,3.469,1.11,6.088,6.088,0,0,0,5.949-7.492Z" transform="translate(4.462 4.398)"/>
  <path id="Path_3" data-name="Path 3" class="cls-2" d="M66.058,68.7A92.3,92.3,0,0,1,38.135,20.134a27.836,27.836,0,0,0-5,3.3l-.364-.364a23.917,23.917,0,0,1-4.284-6.4,4.267,4.267,0,0,0-.8-1.11,4.353,4.353,0,0,0-6.851.937,4.284,4.284,0,0,0,0,4.2,4.388,4.388,0,0,0,1.734,1.734,26.64,26.64,0,0,1,6.695,4.509l.121.121a27.923,27.923,0,0,0-6.105,14.482H19.82a7.163,7.163,0,0,1-4.162-1.474,6.07,6.07,0,1,0,0,9.9,7.493,7.493,0,0,1,4.163-1.492h3.469a27.923,27.923,0,0,0,6.226,14.447l-.1.1a26.64,26.64,0,0,1-6.764,4.527,4.388,4.388,0,0,0-1.734,1.734,4.284,4.284,0,0,0,0,4.2,4.353,4.353,0,0,0,6.851.937,4.249,4.249,0,0,0,.8-1.11,23.917,23.917,0,0,1,4.232-6.382l.347-.347a27.923,27.923,0,0,0,14.43,6.174v3.469A7.163,7.163,0,0,1,46.1,80.386a6.07,6.07,0,1,0,9.9,0,7.493,7.493,0,0,1-1.492-4.163V72.755A27.941,27.941,0,0,0,66.058,68.7Z" transform="translate(4.462 10.495)"/>
  <path id="Path_6" data-name="Path 6" class="cls-3" d="M58.566,28.885A21.333,21.333,0,1,1,41.031,19.71" transform="translate(14.469 14.475)"/>
  <rect id="Rectangle_7" data-name="Rectangle 7" class="cls-4" width="111" height="111"/>
</svg>
